<?xml version="1.0" standalone="no"?>
<!DOCTYPE svg PUBLIC "-//W3C//DTD SVG 20010904//EN"
 "http://www.w3.org/TR/2001/REC-SVG-20010904/DTD/svg10.dtd">
<svg version="1.0" xmlns="http://www.w3.org/2000/svg"
 width="512.000000pt" height="512.000000pt" viewBox="0 0 512.000000 512.000000"
 preserveAspectRatio="xMidYMid meet">
<metadata>
Created by potrace 1.14, written by Peter Selinger 2001-2017
</metadata>
<g transform="translate(0.000000,512.000000) scale(0.100000,-0.100000)"
fill="#000000" stroke="none">
<path d="M0 4675 l0 -445 435 0 435 0 0 445 0 445 -435 0 -435 0 0 -445z"/>
<path d="M920 4675 l0 -445 530 0 530 0 0 445 0 445 -530 0 -530 0 0 -445z"/>
<path d="M2030 4675 l0 -445 530 0 530 0 0 445 0 445 -530 0 -530 0 0 -445z"/>
<path d="M3130 4675 l0 -445 530 0 530 0 0 445 0 445 -530 0 -530 0 0 -445z"/>
<path d="M4240 4675 l0 -445 440 0 440 0 0 445 0 445 -440 0 -440 0 0 -445z"/>
<path d="M0 3650 l0 -530 435 0 435 0 0 530 0 530 -435 0 -435 0 0 -530z"/>
<path d="M920 3650 l0 -530 530 0 530 0 0 530 0 530 -530 0 -530 0 0 -530z"/>
<path d="M3137 4173 c-4 -3 -7 -242 -7 -530 l0 -523 530 0 530 0 0 530 0 530
-523 0 c-288 0 -527 -3 -530 -7z"/>
<path d="M4240 3650 l0 -530 440 0 440 0 0 530 0 530 -440 0 -440 0 0 -530z"/>
<path d="M0 2540 l0 -530 435 0 435 0 0 530 0 530 -435 0 -435 0 0 -530z"/>
<path d="M920 2540 l0 -530 530 0 530 0 0 530 0 530 -530 0 -530 0 0 -530z"/>
<path d="M2030 2540 l0 -530 530 0 530 0 0 530 0 530 -530 0 -530 0 0 -530z"/>
<path d="M4240 2540 l0 -530 440 0 440 0 0 530 0 530 -440 0 -440 0 0 -530z"/>
<path d="M0 1435 l0 -525 435 0 435 0 0 525 0 525 -435 0 -435 0 0 -525z"/>
<path d="M4240 1435 l0 -525 440 0 440 0 0 525 0 525 -440 0 -440 0 0 -525z"/>
<path d="M0 430 l0 -430 435 0 435 0 0 430 0 430 -435 0 -435 0 0 -430z"/>
<path d="M920 430 l0 -430 530 0 530 0 0 430 0 430 -530 0 -530 0 0 -430z"/>
<path d="M2030 430 l0 -430 530 0 530 0 0 430 0 430 -530 0 -530 0 0 -430z"/>
<path d="M3130 430 l0 -430 530 0 530 0 0 430 0 430 -530 0 -530 0 0 -430z"/>
<path d="M4240 430 l0 -430 440 0 440 0 0 430 0 430 -440 0 -440 0 0 -430z"/>
</g>
</svg>
